<svg width="60" height="60" fill="none" xmlns="http://www.w3.org/2000/svg"><path d="M13.125 47.813H6.562v5.624h6.563v-5.624zM23.438 45h-6.563v8.438h6.563V45zm10.312-4.687h-6.563v13.124h6.563V40.313zm10.313-6.563H37.5v19.688h6.563V33.75zm10.312-13.125h-6.563v32.813h6.563V20.624zM18.75 7.5H6.562v1.875H18.75V7.5zm0 3.75H6.562v1.875H18.75V11.25zM15 15H6.562v1.875H15V15zm0 3.75H6.562v1.875H15V18.75zm43.125 37.5H1.875v1.875h56.25V56.25zM50.202 9.538l1.513-4.324 2.758 5.518a.939.939 0 001.679-.839l-3.75-7.5a.94.94 0 00-1.258-.42l-7.5 3.75a.938.938 0 00.838 1.679l5.431-2.715-1.482 4.232A50.03 50.03 0 015.545 42.187l.16 1.876A51.907 51.907 0 0050.202 9.538z" fill="#FF5112"/><path d="M6.563 46.875a.938.938 0 00-.938.938v5.624a.938.938 0 00.938.938h6.562a.938.938 0 00.938-.938v-5.624a.938.938 0 00-.938-.938H6.562zm5.625 5.625H7.5v-3.75h4.688v3.75zm4.687-8.437a.938.938 0 00-.938.937v8.438a.938.938 0 00.938.937h6.563a.938.938 0 00.937-.938V45a.938.938 0 00-.938-.938h-6.562zM22.5 52.5h-4.688v-6.563H22.5V52.5zm4.688-13.125a.938.938 0 00-.938.938v13.124a.938.938 0 00.938.938h6.562a.938.938 0 00.938-.938V40.313a.938.938 0 00-.938-.938h-6.563zM32.813 52.5h-4.688V41.25h4.688V52.5zM37.5 32.813a.938.938 0 00-.938.937v19.688a.938.938 0 00.938.937h6.563a.938.938 0 00.937-.938V33.75a.938.938 0 00-.938-.938H37.5zM43.125 52.5h-4.688V34.687h4.688V52.5zm4.688-32.812a.938.938 0 00-.938.937v32.813a.938.938 0 00.938.937h6.562a.938.938 0 00.938-.938V20.626a.938.938 0 00-.938-.938h-6.563zM53.437 52.5H48.75V21.562h4.688V52.5z" fill="#FF5112"/></svg>