<svg width="60" height="60" fill="none" xmlns="http://www.w3.org/2000/svg"><path d="M47.85 30.573a18.195 18.195 0 01-3.975 6.76c.426.8.778 1.637 1.053 2.5a20.644 20.644 0 005.648-9.687c-.893.226-1.806.369-2.726.427zM30.625 4.375a20.55 20.55 0 00-6.5 1.067 15.035 15.035 0 011.639 2.115 17.795 17.795 0 018.651-.278 15.067 15.067 0 011.738-2.125 20.5 20.5 0 00-5.528-.779zm-17.5 26.25a14.99 14.99 0 01-2.375-.206 20.67 20.67 0 005.578 9.416 14.9 14.9 0 011.052-2.5 18.22 18.22 0 01-3.97-6.726c-.095.001-.189.016-.285.016zm17.5 1.25a12.5 12.5 0 100 25 12.5 12.5 0 000-25zm0 22.5a9.975 9.975 0 01-7.576-3.485 8.124 8.124 0 014.911-4.806 5 5 0 115.33 0 8.123 8.123 0 014.911 4.806 9.973 9.973 0 01-7.576 3.485zm16.25-51.25a12.5 12.5 0 100 25 12.5 12.5 0 000-25zm0 22.5a9.975 9.975 0 01-7.576-3.485 8.124 8.124 0 014.911-4.806 5 5 0 115.33 0 8.126 8.126 0 014.911 4.806 9.973 9.973 0 01-7.576 3.485zm-33.75-22.5a12.5 12.5 0 100 25 12.5 12.5 0 000-25zm0 22.5a9.973 9.973 0 01-7.576-3.488 8.125 8.125 0 014.911-4.806 5 5 0 115.33 0 8.125 8.125 0 014.911 4.806 9.973 9.973 0 01-7.576 3.488z" fill="#FF5112"/></svg>