<svg width="60" height="60" fill="none" xmlns="http://www.w3.org/2000/svg"><path d="M49.879 16.62L36.585 3.328a4.363 4.363 0 00-3.07-1.265H13.192a4.336 4.336 0 00-4.332 4.33v47.213a4.336 4.336 0 004.332 4.331h12.843a1.688 1.688 0 000-3.374H13.191a.958.958 0 01-.957-.957V6.394c0-.527.43-.957.957-.957h19.738v10.504a4.333 4.333 0 004.33 4.328h10.507V32.83a1.688 1.688 0 003.375 0V19.67a4.35 4.35 0 00-1.262-3.049zm-13.573-.679v-8.12l9.073 9.073h-8.12a.954.954 0 01-.953-.953z" fill="#FF5D22"/><path d="M43.637 27.188c0-.932-.756-1.688-1.688-1.688H18.043a1.688 1.688 0 000 3.375h23.906c.932 0 1.688-.756 1.688-1.688zm-25.594-8.001h9.585a1.688 1.688 0 000-3.375h-9.585a1.688 1.688 0 000 3.375zm8.985 17.694c0-.932-.755-1.687-1.687-1.687h-7.294a1.688 1.688 0 000 3.375h7.294c.931 0 1.687-.756 1.687-1.688zm-8.981 7.988a1.688 1.688 0 000 3.375h4.537a1.688 1.688 0 000-3.375h-4.537zM39.293 34.25c-6.53 0-11.843 5.313-11.843 11.845 0 6.53 5.312 11.843 11.843 11.843 6.53 0 11.844-5.312 11.844-11.843 0-6.532-5.314-11.844-11.844-11.844zm0 20.313c-4.67 0-8.47-3.8-8.47-8.47 0-4.67 3.8-8.47 8.47-8.47 4.67 0 8.47 3.8 8.47 8.47 0 4.67-3.802 8.47-8.47 8.47z" fill="#FF5D22"/><path d="M41.687 43.05l-3.624 2.923-.897-1.14a1.688 1.688 0 00-2.655 2.085l1.95 2.485a1.685 1.685 0 002.385.271l4.958-3.993a1.689 1.689 0 00-2.117-2.631z" fill="#FF5D22"/></svg>