<svg width="60" height="60" fill="none" xmlns="http://www.w3.org/2000/svg"><g clip-path="url(#clip0_103_473)" fill="#FF5112"><path d="M43.75 12.5H40a2.5 2.5 0 00-2.5 2.5v30a2.5 2.5 0 002.5 2.5h3.75a2.5 2.5 0 002.5-2.5V15a2.5 2.5 0 00-2.5-2.5zm8.125 6.25H48.75v22.5h3.125a1.875 1.875 0 001.875-1.875v-18.75a1.875 1.875 0 00-1.875-1.875zM20 12.5h-3.75a2.5 2.5 0 00-2.5 2.5v30a2.5 2.5 0 002.5 2.5H20a2.5 2.5 0 002.5-2.5V15a2.5 2.5 0 00-2.5-2.5zM8.125 18.75h3.125v22.5H8.125a1.875 1.875 0 01-1.875-1.875v-18.75a1.875 1.875 0 011.875-1.875zM3.75 25A3.75 3.75 0 000 28.75v2.5A3.75 3.75 0 003.75 35V25zm52.5 0v10A3.75 3.75 0 0060 31.25v-2.5A3.75 3.75 0 0056.25 25zM35 25H25v10h10V25z"/></g><defs><clipPath id="clip0_103_473"><path fill="#fff" d="M0 0h60v60H0z"/></clipPath></defs></svg>